<svg xmlns="http://www.w3.org/2000/svg" version="1.1" xmlns:xlink="http://www.w3.org/1999/xlink" xmlns:svgjs="http://svgjs.com/svgjs" width="1440" height="900" preserveAspectRatio="none" viewBox="0 0 1440 900"><g mask="url(&quot;#SvgjsMask1011&quot;)" fill="none"><rect width="1440" height="900" x="0" y="0" fill="rgba(22, 0, 64, 0.9019607843137255)"></rect><path d="M -407.2263499603437,595 C -311.23,515 -119.23,164.2 72.77365003965627,195 C 264.77,225.8 360.77,716 552.7736500396563,749 C 744.77,782 840.77,365.8 1032.7736500396563,360 C 1224.77,354.2 1431.33,752.4 1512.7736500396563,720 C 1594.22,687.6 1454.55,302.4 1440,198" stroke="rgba(51, 121, 194, 0.58)" stroke-width="2"></path><path d="M -838.2644053415881,649 C -742.26,572.6 -550.26,269.6 -358.26440534158814,267 C -166.26,264.4 -70.26,647.8 121.73559465841186,636 C 313.74,624.2 409.74,194 601.7355946584119,208 C 793.74,222 914.08,665.8 1081.7355946584119,706 C 1249.39,746.2 1368.35,468.4 1440,409" stroke="rgba(51, 121, 194, 0.58)" stroke-width="2"></path><path d="M -433.30650601967966,719 C -337.31,609.6 -145.31,172.6 46.69349398032036,172 C 238.69,171.4 334.69,698 526.6934939803203,716 C 718.69,734 814.69,251.8 1006.6934939803203,262 C 1198.69,272.2 1400.03,766.4 1486.6934939803205,767 C 1573.35,767.6 1449.34,365.4 1440,265" stroke="rgba(51, 121, 194, 0.58)" stroke-width="2"></path><path d="M -79.42761698180954,542 C 16.57,477.8 208.57,185 400.57238301819046,221 C 592.57,257 688.57,731.4 880.5723830181905,722 C 1072.57,712.6 1168.57,190.4 1360.5723830181905,174 C 1552.57,157.6 1824.69,636.4 1840.5723830181905,640 C 1856.46,643.6 1520.11,281.6 1440,192" stroke="rgba(51, 121, 194, 0.58)" stroke-width="2"></path></g><defs><mask id="SvgjsMask1011"><rect width="1440" height="900" fill="#ffffff"></rect></mask></defs></svg>